<mxfile host="app.diagrams.net" modified="2023-08-22T07:18:04.100Z" agent="Mozilla/5.0 (Windows NT 10.0; Win64; x64) AppleWebKit/537.36 (KHTML, like Gecko) Chrome/116.0.0.0 Safari/537.36" etag="uV4dj4uSQbaM6BhPT1GL" version="21.6.8" type="github">
  <diagram name="Page-1" id="r13IsyH-03H1IxFUfFQ_">
    <mxGraphModel dx="887" dy="348" grid="1" gridSize="10" guides="1" tooltips="1" connect="1" arrows="1" fold="1" page="1" pageScale="1" pageWidth="850" pageHeight="1100" math="0" shadow="0">
      <root>
        <mxCell id="0" />
        <mxCell id="1" parent="0" />
        <mxCell id="au3gpMroSw2Wonm0FTS5-1" value="Actor" style="shape=umlActor;verticalLabelPosition=bottom;verticalAlign=top;html=1;outlineConnect=0;strokeColor=#330066;shadow=0;" vertex="1" parent="1">
          <mxGeometry x="100" y="160" width="40" height="80" as="geometry" />
        </mxCell>
        <mxCell id="au3gpMroSw2Wonm0FTS5-2" value="" style="endArrow=none;html=1;rounded=0;shadow=0;" edge="1" parent="1" source="au3gpMroSw2Wonm0FTS5-1">
          <mxGeometry width="50" height="50" relative="1" as="geometry">
            <mxPoint x="180" y="230" as="sourcePoint" />
            <mxPoint x="240" y="200" as="targetPoint" />
          </mxGeometry>
        </mxCell>
        <mxCell id="au3gpMroSw2Wonm0FTS5-3" value="" style="swimlane;startSize=0;" vertex="1" parent="1">
          <mxGeometry x="240" y="80" width="240" height="280" as="geometry">
            <mxRectangle x="240" y="90" width="50" height="40" as="alternateBounds" />
          </mxGeometry>
        </mxCell>
        <mxCell id="au3gpMroSw2Wonm0FTS5-5" value="&lt;div style=&quot;&quot;&gt;&lt;span style=&quot;background-color: initial;&quot;&gt;random&lt;/span&gt;&lt;/div&gt;&lt;div style=&quot;&quot;&gt;&lt;span style=&quot;background-color: initial;&quot;&gt;angka&lt;/span&gt;&lt;/div&gt;" style="ellipse;whiteSpace=wrap;html=1;align=center;" vertex="1" parent="au3gpMroSw2Wonm0FTS5-3">
          <mxGeometry x="120" y="20" width="80" height="50" as="geometry" />
        </mxCell>
        <mxCell id="au3gpMroSw2Wonm0FTS5-6" value="" style="endArrow=none;html=1;rounded=0;entryX=0;entryY=0.5;entryDx=0;entryDy=0;" edge="1" parent="au3gpMroSw2Wonm0FTS5-3" target="au3gpMroSw2Wonm0FTS5-5">
          <mxGeometry width="50" height="50" relative="1" as="geometry">
            <mxPoint y="120" as="sourcePoint" />
            <mxPoint x="50" y="70" as="targetPoint" />
          </mxGeometry>
        </mxCell>
        <mxCell id="au3gpMroSw2Wonm0FTS5-10" value="tebak&lt;br&gt;angka" style="ellipse;whiteSpace=wrap;html=1;align=center;" vertex="1" parent="au3gpMroSw2Wonm0FTS5-3">
          <mxGeometry x="40" y="180" width="80" height="55" as="geometry" />
        </mxCell>
        <mxCell id="au3gpMroSw2Wonm0FTS5-18" value="" style="endArrow=none;html=1;rounded=0;entryX=1;entryY=0.427;entryDx=0;entryDy=0;entryPerimeter=0;" edge="1" parent="au3gpMroSw2Wonm0FTS5-3" target="au3gpMroSw2Wonm0FTS5-3">
          <mxGeometry width="50" height="50" relative="1" as="geometry">
            <mxPoint x="111.92" y="190" as="sourcePoint" />
            <mxPoint x="240.00000000000003" y="112.56" as="targetPoint" />
          </mxGeometry>
        </mxCell>
        <mxCell id="au3gpMroSw2Wonm0FTS5-17" value="" style="endArrow=none;html=1;rounded=0;" edge="1" parent="au3gpMroSw2Wonm0FTS5-3">
          <mxGeometry width="50" height="50" relative="1" as="geometry">
            <mxPoint x="240" y="120" as="sourcePoint" />
            <mxPoint x="300" y="120" as="targetPoint" />
          </mxGeometry>
        </mxCell>
        <mxCell id="au3gpMroSw2Wonm0FTS5-16" value="Actor" style="shape=umlActor;verticalLabelPosition=bottom;verticalAlign=top;html=1;outlineConnect=0;" vertex="1" parent="1">
          <mxGeometry x="540" y="160" width="40" height="80" as="geometry" />
        </mxCell>
      </root>
    </mxGraphModel>
  </diagram>
</mxfile>
